<?xml version="1.0" encoding="UTF-8" standalone="no"?>
<svg
   width="480"
   height="270"
   viewBox="0 0 480 270"
   version="1.1"
   id="svg157"
   xmlns="http://www.w3.org/2000/svg"
   xmlns:svg="http://www.w3.org/2000/svg">
  <defs
     id="defs157" />
  <path
     stroke="none"
     fill="#0073e2"
     d="M 76.134344,228.10217 V 207.86773 H 65.207752 v 20.23444 z"
     id="path1"
     style="stroke-width:0.0702585" />
  <path
     stroke="none"
     fill="#0073e2"
     d="m 65.207752,207.86773 a 5.463296,5.463296 0 1 0 10.926592,0 5.463296,5.463296 0 1 0 -10.926592,0 z"
     id="path2"
     style="stroke-width:0.0702585" />
  <path
     stroke="none"
     fill="#0073e2"
     d="m 65.207752,228.10217 a 5.463296,5.463296 0 1 0 10.926592,0 5.463296,5.463296 0 1 0 -10.926592,0 z"
     id="path3"
     style="stroke-width:0.0702585" />
  <path
     stroke="none"
     fill="#0073e2"
     d="m 90.92515,233.48818 -17.522453,-10.11722 -5.463297,9.4624 17.522453,10.11721 z"
     id="path4"
     style="stroke-width:0.0702585" />
  <path
     stroke="none"
     fill="#0073e2"
     d="m 65.207752,228.10217 a 5.463296,5.463296 0 1 0 10.926592,0 5.463296,5.463296 0 1 0 -10.926592,0 z"
     id="path5"
     style="stroke-width:0.0702585" />
  <path
     stroke="none"
     fill="#0073e2"
     d="m 82.730206,238.21938 a 5.463296,5.463296 0 1 0 10.926592,0 5.463296,5.463296 0 1 0 -10.926592,0 z"
     id="path6"
     style="stroke-width:0.0702585" />
  <path
     stroke="none"
     fill="#0073e2"
     d="m 102.98431,223.37096 -17.522457,10.11722 5.463297,9.46239 17.52245,-10.11721 z"
     id="path7"
     style="stroke-width:0.0702585" />
  <path
     stroke="none"
     fill="#0073e2"
     d="m 82.730206,238.21938 a 5.463296,5.463296 0 1 0 10.926592,0 5.463296,5.463296 0 1 0 -10.926592,0 z"
     id="path8"
     style="stroke-width:0.0702585" />
  <path
     stroke="none"
     fill="#0073e2"
     d="m 100.25266,228.10217 a 5.4632959,5.4632959 0 1 0 10.92659,0 5.4632959,5.4632959 0 1 0 -10.92659,0 z"
     id="path9"
     style="stroke-width:0.0702585" />
  <path
     stroke="none"
     fill="#0073e2"
     d="m 100.25266,207.86773 v 20.23444 h 10.92659 v -20.23444 z"
     id="path10"
     style="stroke-width:0.0702585" />
  <path
     stroke="none"
     fill="#0073e2"
     d="m 100.25266,228.10217 a 5.4632959,5.4632959 0 1 0 10.92659,0 5.4632959,5.4632959 0 1 0 -10.92659,0 z"
     id="path11"
     style="stroke-width:0.0702585" />
  <path
     stroke="none"
     fill="#0073e2"
     d="m 100.25266,207.86773 a 5.4632959,5.4632959 0 1 0 10.92659,0 5.4632959,5.4632959 0 1 0 -10.92659,0 z"
     id="path12"
     style="stroke-width:0.0702585" />
  <path
     stroke="none"
     fill="#0073e2"
     d="m 85.461853,202.48172 17.522457,10.11721 5.46329,-9.46241 -17.52245,-10.11721 z"
     id="path13"
     style="stroke-width:0.0702585" />
  <path
     stroke="none"
     fill="#0073e2"
     d="m 100.25266,207.86773 a 5.4632959,5.4632959 0 1 0 10.92659,0 5.4632959,5.4632959 0 1 0 -10.92659,0 z"
     id="path14"
     style="stroke-width:0.0702585" />
  <path
     stroke="none"
     fill="#0073e2"
     d="m 82.730206,197.75051 a 5.463296,5.463296 0 1 0 10.926592,0 5.463296,5.463296 0 1 0 -10.926592,0 z"
     id="path15"
     style="stroke-width:0.0702585" />
  <path
     stroke="none"
     fill="#0073e2"
     d="M 73.402697,212.59893 90.92515,202.48172 85.461853,193.01931 67.9394,203.13652 Z"
     id="path16"
     style="stroke-width:0.0702585" />
  <path
     stroke="none"
     fill="#0073e2"
     d="m 82.730206,197.75051 a 5.463296,5.463296 0 1 0 10.926592,0 5.463296,5.463296 0 1 0 -10.926592,0 z"
     id="path17"
     style="stroke-width:0.0702585" />
  <path
     stroke="none"
     fill="#0073e2"
     d="m 65.207752,207.86773 a 5.463296,5.463296 0 1 0 10.926592,0 5.463296,5.463296 0 1 0 -10.926592,0 z"
     id="path18"
     style="stroke-width:0.0702585" />
  <path
     stroke="none"
     fill="#0073e2"
     d="M 235.53668,62.137696 V 41.903267 h -10.9266 v 20.234429 z"
     id="path19"
     style="stroke-width:0.0702585" />
  <path
     stroke="none"
     fill="#0073e2"
     d="m 224.61008,41.903267 a 5.4633,5.4633 0 1 0 10.9266,0 5.4633,5.4633 0 1 0 -10.9266,0 z"
     id="path20"
     style="stroke-width:0.0702585" />
  <path
     stroke="none"
     fill="#0073e2"
     d="m 224.61008,62.137696 a 5.4633,5.4633 0 1 0 10.9266,0 5.4633,5.4633 0 1 0 -10.9266,0 z"
     id="path21"
     style="stroke-width:0.0702585" />
  <path
     stroke="none"
     fill="#0073e2"
     d="m 250.32749,67.523708 -17.52246,-10.117215 -5.4633,9.462405 17.52245,10.117217 z"
     id="path22"
     style="stroke-width:0.0702585" />
  <path
     stroke="none"
     fill="#0073e2"
     d="m 224.61008,62.137696 a 5.4633,5.4633 0 1 0 10.9266,0 5.4633,5.4633 0 1 0 -10.9266,0 z"
     id="path23"
     style="stroke-width:0.0702585" />
  <path
     stroke="none"
     fill="#0073e2"
     d="m 242.13254,72.25491 a 5.4632977,5.4632977 0 1 0 10.92659,0 5.4632977,5.4632977 0 1 0 -10.92659,0 z"
     id="path24"
     style="stroke-width:0.0702585" />
  <path
     stroke="none"
     fill="#0073e2"
     d="m 262.38663,57.406493 -17.52245,10.117215 5.46331,9.462407 17.52245,-10.117217 z"
     id="path25"
     style="stroke-width:0.0702585" />
  <path
     stroke="none"
     fill="#0073e2"
     d="m 242.13254,72.25491 a 5.4632977,5.4632977 0 1 0 10.92659,0 5.4632977,5.4632977 0 1 0 -10.92659,0 z"
     id="path26"
     style="stroke-width:0.0702585" />
  <path
     stroke="none"
     fill="#0073e2"
     d="m 259.65499,62.137696 a 5.4632977,5.4632977 0 1 0 10.92659,0 5.4632977,5.4632977 0 1 0 -10.92659,0 z"
     id="path27"
     style="stroke-width:0.0702585" />
  <path
     stroke="none"
     fill="#0073e2"
     d="m 259.65499,41.903267 v 20.234429 h 10.92659 V 41.903267 Z"
     id="path28"
     style="stroke-width:0.0702585" />
  <path
     stroke="none"
     fill="#0073e2"
     d="m 259.65499,62.137696 a 5.4632977,5.4632977 0 1 0 10.92659,0 5.4632977,5.4632977 0 1 0 -10.92659,0 z"
     id="path29"
     style="stroke-width:0.0702585" />
  <path
     stroke="none"
     fill="#0073e2"
     d="m 259.65499,41.903267 a 5.4632977,5.4632977 0 1 0 10.92659,0 5.4632977,5.4632977 0 1 0 -10.92659,0 z"
     id="path30"
     style="stroke-width:0.0702585" />
  <path
     stroke="none"
     fill="#0073e2"
     d="M 244.86418,36.517255 262.38663,46.63447 267.84994,37.172065 250.32749,27.05485 Z"
     id="path31"
     style="stroke-width:0.0702585" />
  <path
     stroke="none"
     fill="#0073e2"
     d="m 259.65499,41.903267 a 5.4632977,5.4632977 0 1 0 10.92659,0 5.4632977,5.4632977 0 1 0 -10.92659,0 z"
     id="path32"
     style="stroke-width:0.0702585" />
  <path
     stroke="none"
     fill="#0073e2"
     d="m 242.13254,31.786053 a 5.4632977,5.4632977 0 1 0 10.92659,0 5.4632977,5.4632977 0 1 0 -10.92659,0 z"
     id="path33"
     style="stroke-width:0.0702585" />
  <path
     stroke="none"
     fill="#0073e2"
     d="M 232.80503,46.63447 250.32749,36.517255 244.86418,27.05485 227.34173,37.172065 Z"
     id="path34"
     style="stroke-width:0.0702585" />
  <path
     stroke="none"
     fill="#0073e2"
     d="m 242.13254,31.786053 a 5.4632977,5.4632977 0 1 0 10.92659,0 5.4632977,5.4632977 0 1 0 -10.92659,0 z"
     id="path35"
     style="stroke-width:0.0702585" />
  <path
     stroke="none"
     fill="#0073e2"
     d="m 224.61008,41.903267 a 5.4633,5.4633 0 1 0 10.9266,0 5.4633,5.4633 0 1 0 -10.9266,0 z"
     id="path36"
     style="stroke-width:0.0702585" />
  <path
     stroke="none"
     fill="#0073e2"
     d="m 242.13254,11.551623 v 20.23443 h 10.92659 v -20.23443 z"
     id="path37"
     style="stroke-width:0.0702585" />
  <path
     stroke="none"
     fill="#0073e2"
     d="m 242.13254,31.786053 a 5.4632977,5.4632977 0 1 0 10.92659,0 5.4632977,5.4632977 0 1 0 -10.92659,0 z"
     id="path38"
     style="stroke-width:0.0702585" />
  <path
     stroke="none"
     fill="#0073e2"
     d="m 242.13254,11.551623 a 5.4632977,5.4632977 0 1 0 10.92659,0 5.4632977,5.4632977 0 1 0 -10.92659,0 z"
     id="path39"
     style="stroke-width:0.0702585" />
  <path
     stroke="none"
     fill="#0073e2"
     d="M 93.656798,258.45381 V 238.21938 H 82.730206 v 20.23443 z"
     id="path40"
     style="stroke-width:0.0702585" />
  <path
     stroke="none"
     fill="#0073e2"
     d="m 82.730206,238.21938 a 5.463296,5.463296 0 1 0 10.926592,0 5.463296,5.463296 0 1 0 -10.926592,0 z"
     id="path41"
     style="stroke-width:0.0702585" />
  <path
     stroke="none"
     fill="#0073e2"
     d="m 82.730206,258.45381 a 5.463296,5.463296 0 1 0 10.926592,0 5.463296,5.463296 0 1 0 -10.926592,0 z"
     id="path42"
     style="stroke-width:0.0702585" />
  <path
     stroke="none"
     fill="#0073e2"
     d="m 222.18757,237.98049 v -20.23442 h -10.92658 v 20.23442 z"
     id="path43"
     style="stroke-width:0.0702585" />
  <path
     stroke="none"
     fill="#0073e2"
     d="m 211.26099,217.74607 a 5.4632958,5.4632958 0 1 0 10.92658,0 5.4632958,5.4632958 0 1 0 -10.92658,0 z"
     id="path44"
     style="stroke-width:0.0702585" />
  <path
     stroke="none"
     fill="#0073e2"
     d="m 211.26099,237.98049 a 5.4632958,5.4632958 0 1 0 10.92658,0 5.4632958,5.4632958 0 1 0 -10.92658,0 z"
     id="path45"
     style="stroke-width:0.0702585" />
  <path
     stroke="none"
     fill="#0073e2"
     d="m 236.97838,243.36651 -17.52246,-10.11721 -5.46329,9.4624 17.52246,10.11721 z"
     id="path46"
     style="stroke-width:0.0702585" />
  <path
     stroke="none"
     fill="#0073e2"
     d="m 211.26099,237.98049 a 5.4632958,5.4632958 0 1 0 10.92658,0 5.4632958,5.4632958 0 1 0 -10.92658,0 z"
     id="path47"
     style="stroke-width:0.0702585" />
  <path
     stroke="none"
     fill="#0073e2"
     d="m 228.78344,248.09772 a 5.4632958,5.4632958 0 1 0 10.92658,0 5.4632958,5.4632958 0 1 0 -10.92658,0 z"
     id="path48"
     style="stroke-width:0.0702585" />
  <path
     stroke="none"
     fill="#0073e2"
     d="m 249.05159,233.24578 -17.5365,10.11721 5.46329,9.46944 17.5365,-10.11722 z"
     id="path49"
     style="stroke-width:0.0702585" />
  <path
     stroke="none"
     fill="#0073e2"
     d="m 228.78062,248.09772 a 5.4663309,5.4663309 0 1 0 10.93221,0 5.4663309,5.4663309 0 1 0 -10.93221,0 z"
     id="path50"
     style="stroke-width:0.0702585" />
  <path
     stroke="none"
     fill="#0073e2"
     d="m 246.31713,237.98049 a 5.4663309,5.4663309 0 1 0 10.93222,0 5.4663309,5.4663309 0 1 0 -10.93222,0 z"
     id="path51"
     style="stroke-width:0.0702585" />
  <path
     stroke="none"
     fill="#0073e2"
     d="m 246.31994,217.74607 v 20.23442 h 10.9266 v -20.23442 z"
     id="path52"
     style="stroke-width:0.0702585" />
  <path
     stroke="none"
     fill="#0073e2"
     d="m 246.31994,237.98049 a 5.4633,5.4633 0 1 0 10.9266,0 5.4633,5.4633 0 1 0 -10.9266,0 z"
     id="path53"
     style="stroke-width:0.0702585" />
  <path
     stroke="none"
     fill="#0073e2"
     d="m 246.31994,217.74607 a 5.4633,5.4633 0 1 0 10.9266,0 5.4633,5.4633 0 1 0 -10.9266,0 z"
     id="path54"
     style="stroke-width:0.0702585" />
  <path
     stroke="none"
     fill="#0073e2"
     d="m 231.51509,212.36357 17.5365,10.11722 5.46329,-9.46944 -17.5365,-10.11721 z"
     id="path55"
     style="stroke-width:0.0702585" />
  <path
     stroke="none"
     fill="#0073e2"
     d="m 246.31713,217.74607 a 5.4663309,5.4663309 0 1 0 10.93222,0 5.4663309,5.4663309 0 1 0 -10.93222,0 z"
     id="path56"
     style="stroke-width:0.0702585" />
  <path
     stroke="none"
     fill="#0073e2"
     d="m 228.78062,207.62885 a 5.4663309,5.4663309 0 1 0 10.93221,0 5.4663309,5.4663309 0 1 0 -10.93221,0 z"
     id="path57"
     style="stroke-width:0.0702585" />
  <path
     stroke="none"
     fill="#0073e2"
     d="m 219.45592,222.47727 17.52246,-10.11721 -5.46329,-9.46241 -17.52246,10.11721 z"
     id="path58"
     style="stroke-width:0.0702585" />
  <path
     stroke="none"
     fill="#0073e2"
     d="m 228.78344,207.62885 a 5.4632958,5.4632958 0 1 0 10.92658,0 5.4632958,5.4632958 0 1 0 -10.92658,0 z"
     id="path59"
     style="stroke-width:0.0702585" />
  <path
     stroke="none"
     fill="#0073e2"
     d="m 211.26099,217.74607 a 5.4632958,5.4632958 0 1 0 10.92658,0 5.4632958,5.4632958 0 1 0 -10.92658,0 z"
     id="path60"
     style="stroke-width:0.0702585" />
  <path
     stroke="none"
     fill="#0073e2"
     d="m 201.93347,252.82891 17.52245,-10.11721 -5.46329,-9.4624 -17.52245,10.11721 z"
     id="path61"
     style="stroke-width:0.0702585" />
  <path
     stroke="none"
     fill="#0073e2"
     d="m 211.26099,237.98049 a 5.4632958,5.4632958 0 1 0 10.92658,0 5.4632958,5.4632958 0 1 0 -10.92658,0 z"
     id="path62"
     style="stroke-width:0.0702585" />
  <path
     stroke="none"
     fill="#0073e2"
     d="m 193.73852,248.09772 a 5.4633,5.4633 0 1 0 10.9266,0 5.4633,5.4633 0 1 0 -10.9266,0 z"
     id="path63"
     style="stroke-width:0.0702585" />
  <path
     stroke="none"
     fill="#0073e2"
     d="m 376.9669,211.85841 v -20.23443 h -10.92659 v 20.23443 z"
     id="path64"
     style="stroke-width:0.0702585" />
  <path
     stroke="none"
     fill="#0073e2"
     d="m 366.04031,191.62398 a 5.4632977,5.4632977 0 1 0 10.92659,0 5.4632977,5.4632977 0 1 0 -10.92659,0 z"
     id="path65"
     style="stroke-width:0.0702585" />
  <path
     stroke="none"
     fill="#0073e2"
     d="m 366.04031,211.85841 a 5.4632977,5.4632977 0 1 0 10.92659,0 5.4632977,5.4632977 0 1 0 -10.92659,0 z"
     id="path66"
     style="stroke-width:0.0702585" />
  <path
     stroke="none"
     fill="#0073e2"
     d="m 391.75771,217.24442 -17.52245,-10.11721 -5.46331,9.4624 17.52246,10.11722 z"
     id="path67"
     style="stroke-width:0.0702585" />
  <path
     stroke="none"
     fill="#0073e2"
     d="m 366.04031,211.85841 a 5.4632977,5.4632977 0 1 0 10.92659,0 5.4632977,5.4632977 0 1 0 -10.92659,0 z"
     id="path68"
     style="stroke-width:0.0702585" />
  <path
     stroke="none"
     fill="#0073e2"
     d="m 383.56276,221.97562 a 5.4633,5.4633 0 1 0 10.9266,0 5.4633,5.4633 0 1 0 -10.9266,0 z"
     id="path69"
     style="stroke-width:0.0702585" />
  <path
     stroke="none"
     fill="#0073e2"
     d="m 403.81686,207.12721 -17.52245,10.11721 5.4633,9.46241 17.52245,-10.11722 z"
     id="path70"
     style="stroke-width:0.0702585" />
  <path
     stroke="none"
     fill="#0073e2"
     d="m 383.56276,221.97562 a 5.4633,5.4633 0 1 0 10.9266,0 5.4633,5.4633 0 1 0 -10.9266,0 z"
     id="path71"
     style="stroke-width:0.0702585" />
  <path
     stroke="none"
     fill="#0073e2"
     d="m 401.08521,211.85841 a 5.4633,5.4633 0 1 0 10.9266,0 5.4633,5.4633 0 1 0 -10.9266,0 z"
     id="path72"
     style="stroke-width:0.0702585" />
  <path
     stroke="none"
     fill="#0073e2"
     d="m 401.08521,191.62398 v 20.23443 h 10.9266 v -20.23443 z"
     id="path73"
     style="stroke-width:0.0702585" />
  <path
     stroke="none"
     fill="#0073e2"
     d="m 401.08521,211.85841 a 5.4633,5.4633 0 1 0 10.9266,0 5.4633,5.4633 0 1 0 -10.9266,0 z"
     id="path74"
     style="stroke-width:0.0702585" />
  <path
     stroke="none"
     fill="#0073e2"
     d="m 401.08521,191.62398 a 5.4633,5.4633 0 1 0 10.9266,0 5.4633,5.4633 0 1 0 -10.9266,0 z"
     id="path75"
     style="stroke-width:0.0702585" />
  <path
     stroke="none"
     fill="#0073e2"
     d="m 386.29441,186.23797 17.52245,10.11722 5.4633,-9.46241 -17.52245,-10.11721 z"
     id="path76"
     style="stroke-width:0.0702585" />
  <path
     stroke="none"
     fill="#0073e2"
     d="m 401.08521,191.62398 a 5.4633,5.4633 0 1 0 10.9266,0 5.4633,5.4633 0 1 0 -10.9266,0 z"
     id="path77"
     style="stroke-width:0.0702585" />
  <path
     stroke="none"
     fill="#0073e2"
     d="m 383.56276,181.50677 a 5.4633,5.4633 0 1 0 10.9266,0 5.4633,5.4633 0 1 0 -10.9266,0 z"
     id="path78"
     style="stroke-width:0.0702585" />
  <path
     stroke="none"
     fill="#0073e2"
     d="m 374.23526,196.35519 17.52245,-10.11722 -5.4633,-9.4624 -17.52246,10.11721 z"
     id="path79"
     style="stroke-width:0.0702585" />
  <path
     stroke="none"
     fill="#0073e2"
     d="m 383.56276,181.50677 a 5.4633,5.4633 0 1 0 10.9266,0 5.4633,5.4633 0 1 0 -10.9266,0 z"
     id="path80"
     style="stroke-width:0.0702585" />
  <path
     stroke="none"
     fill="#0073e2"
     d="m 366.04031,191.62398 a 5.4632977,5.4632977 0 1 0 10.92659,0 5.4632977,5.4632977 0 1 0 -10.92659,0 z"
     id="path81"
     style="stroke-width:0.0702585" />
  <path
     stroke="none"
     fill="#0073e2"
     d="m 421.33931,176.77557 -17.52245,10.11721 5.4633,9.46241 17.52246,-10.11722 z"
     id="path82"
     style="stroke-width:0.0702585" />
  <path
     stroke="none"
     fill="#0073e2"
     d="m 401.08521,191.62398 a 5.4633,5.4633 0 1 0 10.9266,0 5.4633,5.4633 0 1 0 -10.9266,0 z"
     id="path83"
     style="stroke-width:0.0702585" />
  <path
     stroke="none"
     fill="#0073e2"
     d="m 418.60767,181.50677 a 5.4632977,5.4632977 0 1 0 10.92659,0 5.4632977,5.4632977 0 1 0 -10.92659,0 z"
     id="path84"
     style="stroke-width:0.0702585" />
  <path
     stroke="none"
     fill="#000000"
     d="m 70.249497,207.62464 0.843101,0.48618 v 19.74824 l -0.421549,0.24311 -0.421552,-0.24311 z"
     id="path85"
     style="stroke-width:0.0702585" />
  <path
     stroke="none"
     fill="#000000"
     d="m 73.891695,209.97057 h 0.843101 v 16.02876 h -0.843101 z"
     id="path86"
     style="stroke-width:0.0702585" />
  <path
     stroke="none"
     fill="#000000"
     d="m 70.671049,228.58905 v -0.48688 l 0.421549,-0.24311 17.100903,9.87343 v 0.48689 l -0.42155,0.24309 z"
     id="path87"
     style="stroke-width:0.0702585" />
  <path
     stroke="none"
     fill="#000000"
     d="m 88.615052,238.46247 -0.421551,-0.24309 v -0.48689 l 17.100899,-9.87343 0.8431,0.4862 z"
     id="path88"
     style="stroke-width:0.0702585" />
  <path
     stroke="none"
     fill="#000000"
     d="m 88.404276,234.37905 -0.42155,-0.72999 13.880254,-8.01437 0.42155,0.72998 z"
     id="path89"
     style="stroke-width:0.0702585" />
  <path
     stroke="none"
     fill="#000000"
     d="m 106.1375,228.34526 -0.8431,-0.4862 v -19.74824 l 0.42155,-0.24309 0.42155,0.24309 z"
     id="path90"
     style="stroke-width:0.0702585" />
  <path
     stroke="none"
     fill="#000000"
     d="m 105.71595,207.38084 v 0.48689 l -0.42155,0.24309 -17.100899,-9.87341 v -0.4869 l 0.421551,-0.24309 z"
     id="path91"
     style="stroke-width:0.0702585" />
  <path
     stroke="none"
     fill="#000000"
     d="m 102.28453,209.60522 -0.42155,0.72999 -13.880254,-8.01438 0.42155,-0.72998 z"
     id="path92"
     style="stroke-width:0.0702585" />
  <path
     stroke="none"
     fill="#000000"
     d="m 87.771951,197.50742 0.42155,0.24309 v 0.4869 l -17.100903,9.87341 -0.843101,-0.48618 z"
     id="path93"
     style="stroke-width:0.0702585" />
  <path
     stroke="none"
     fill="#000000"
     d="m 88.615052,197.50742 -0.421551,0.24309 -0.42155,-0.24309 v -20.23443 l 0.843101,0.48619 z"
     id="path94"
     style="stroke-width:0.0702585" />
  <text
     x="65.206062"
     y="172.43221"
     stroke="none"
     fill="#000000"
     font-style="normal"
     font-weight="normal"
     font-size="14.0517px"
     font-family="Arial"
     id="text94"
     style="stroke-width:0.0702585">O</text>
  <path
     stroke="none"
     fill="#000000"
     d="m 88.404276,179.25358 -0.42155,0.72999 -12.070399,-6.96894 0.421551,-0.72999 z"
     id="path95"
     style="stroke-width:0.0702585" />
  <path
     stroke="none"
     fill="#000000"
     d="m 90.225375,176.09968 -0.421551,0.72999 -12.070398,-6.96894 0.42155,-0.72999 z"
     id="path96"
     style="stroke-width:0.0702585" />
  <text
     x="100.25096"
     y="172.43221"
     stroke="none"
     fill="#000000"
     font-style="normal"
     font-weight="normal"
     font-size="14.0517px"
     font-family="Arial"
     id="text96"
     style="stroke-width:0.0702585">OH</text>
  <path
     stroke="none"
     fill="#000000"
     d="m 88.615052,177.75918 -0.843101,-0.48619 11.328469,-6.54105 0.42155,0.72999 z"
     id="path97"
     style="stroke-width:0.0702585" />
  <text
     x="117.77342"
     y="202.78386"
     stroke="none"
     fill="#000000"
     font-style="normal"
     font-weight="normal"
     font-size="14.0517px"
     font-family="Arial"
     id="text97"
     style="stroke-width:0.0702585">O</text>
  <path
     stroke="none"
     fill="#000000"
     d="m 106.1375,208.11082 -0.42155,-0.24309 v -0.48689 l 10.90693,-6.29726 0.42155,0.72999 z"
     id="path98"
     style="stroke-width:0.0702585" />
  <path
     stroke="none"
     fill="#000000"
     d="m 129.39164,201.78687 0.42086,-0.72999 10.9624,6.32396 v 0.97378 z"
     id="path99"
     style="stroke-width:0.0702585" />
  <path
     stroke="none"
     fill="#000000"
     d="m 140.7749,208.35462 v -0.97378 l 17.31168,-9.99566 0.42156,0.73068 z"
     id="path100"
     style="stroke-width:0.0702585" />
  <text
     x="135.30992"
     y="233.13548"
     stroke="none"
     fill="#000000"
     font-style="normal"
     font-weight="normal"
     font-size="14.0517px"
     font-family="Arial"
     id="text100"
     style="stroke-width:0.0702585">O</text>
  <path
     stroke="none"
     fill="#000000"
     d="m 142.17446,206.81596 h 0.8431 v 13.9196 h -0.8431 z"
     id="path101"
     style="stroke-width:0.0702585" />
  <path
     stroke="none"
     fill="#000000"
     d="m 138.53226,206.81737 h 0.8431 v 13.91819 h -0.8431 z"
     id="path102"
     style="stroke-width:0.0702585" />
  <path
     stroke="none"
     fill="#000000"
     d="m 229.65183,41.660173 0.8431,0.486188 v 19.748241 l -0.8431,0.486188 z"
     id="path103"
     style="stroke-width:0.0702585" />
  <path
     stroke="none"
     fill="#000000"
     d="m 233.29402,44.006103 h 0.8431 V 60.03486 h -0.8431 z"
     id="path104"
     style="stroke-width:0.0702585" />
  <path
     stroke="none"
     fill="#000000"
     d="m 229.65183,62.38079 0.8431,-0.486188 17.1009,9.873418 v 0.973781 z"
     id="path105"
     style="stroke-width:0.0702585" />
  <path
     stroke="none"
     fill="#000000"
     d="M 247.59583,72.741801 V 71.76802 l 17.1009,-9.873418 0.8431,0.486188 z"
     id="path106"
     style="stroke-width:0.0702585" />
  <path
     stroke="none"
     fill="#000000"
     d="m 247.8066,68.414584 -0.42155,-0.729986 13.88026,-8.014378 0.42156,0.729985 z"
     id="path107"
     style="stroke-width:0.0702585" />
  <path
     stroke="none"
     fill="#000000"
     d="m 265.53983,62.38079 -0.8431,-0.486188 V 42.146361 l 0.8431,-0.486188 z"
     id="path108"
     style="stroke-width:0.0702585" />
  <path
     stroke="none"
     fill="#000000"
     d="m 265.53983,41.660173 -0.8431,0.486188 -17.1009,-9.873418 v -0.48689 l 0.42155,-0.243094 z"
     id="path109"
     style="stroke-width:0.0702585" />
  <path
     stroke="none"
     fill="#000000"
     d="m 261.68687,43.640758 -0.42156,0.729985 -13.88026,-8.014379 0.42155,-0.729985 z"
     id="path110"
     style="stroke-width:0.0702585" />
  <path
     stroke="none"
     fill="#000000"
     d="m 247.17428,31.542959 0.42155,0.243094 v 0.48689 l -17.1009,9.873418 -0.8431,-0.486188 z"
     id="path111"
     style="stroke-width:0.0702585" />
  <path
     stroke="none"
     fill="#000000"
     d="m 248.01738,31.542959 -0.42155,0.243094 -0.42155,-0.243094 V 11.551623 h 0.8431 z"
     id="path112"
     style="stroke-width:0.0702585" />
  <text
     x="41.436558"
     y="243.2527"
     stroke="none"
     fill="#000000"
     font-style="normal"
     font-weight="normal"
     font-size="14.0517px"
     font-family="Arial"
     id="text112"
     style="stroke-width:0.0702585">Br</text>
  <path
     stroke="none"
     fill="#000000"
     d="m 70.249497,227.85906 0.421552,0.24311 v 0.48688 l -12.59242,7.27105 -0.42155,-0.73069 z"
     id="path113"
     style="stroke-width:0.0702585" />
  <path
     stroke="none"
     fill="#000000"
     d="m 87.771951,238.46247 0.42155,-0.24309 0.421551,0.24309 v 19.99134 h -0.843101 z"
     id="path114"
     style="stroke-width:0.0702585" />
  <path
     stroke="none"
     fill="#000000"
     d="m 216.30273,217.50297 0.8431,0.48619 v 19.74824 l -0.42155,0.24309 -0.42155,-0.24309 z"
     id="path115"
     style="stroke-width:0.0702585" />
  <path
     stroke="none"
     fill="#000000"
     d="m 219.94493,219.8489 h 0.8431 v 16.02876 h -0.8431 z"
     id="path116"
     style="stroke-width:0.0702585" />
  <path
     stroke="none"
     fill="#000000"
     d="m 216.72428,238.46739 v -0.4869 l 0.42155,-0.24309 17.1009,9.87342 v 0.97378 z"
     id="path117"
     style="stroke-width:0.0702585" />
  <path
     stroke="none"
     fill="#000000"
     d="m 234.24673,248.5846 v -0.97378 l 17.11495,-9.87412 0.42155,0.24379 v 0.4869 z"
     id="path118"
     style="stroke-width:0.0702585" />
  <path
     stroke="none"
     fill="#000000"
     d="m 234.45821,244.25527 -0.42155,-0.73068 13.89149,-8.01368 0.42155,0.72999 z"
     id="path119"
     style="stroke-width:0.0702585" />
  <path
     stroke="none"
     fill="#000000"
     d="m 252.20478,237.7374 -0.42155,0.24309 -0.42155,-0.24379 v -19.74683 l 0.42155,-0.2438 0.42155,0.24309 z"
     id="path120"
     style="stroke-width:0.0702585" />
  <path
     stroke="none"
     fill="#000000"
     d="m 251.78323,217.25918 v 0.48689 l -0.42155,0.2438 -17.11495,-9.87412 v -0.97378 z"
     id="path121"
     style="stroke-width:0.0702585" />
  <path
     stroke="none"
     fill="#000000"
     d="m 248.3497,219.48567 -0.42155,0.72999 -13.89149,-8.01439 0.42155,-0.72998 z"
     id="path122"
     style="stroke-width:0.0702585" />
  <path
     stroke="none"
     fill="#000000"
     d="m 234.24673,207.14197 v 0.97378 l -17.1009,9.87341 -0.8431,-0.48619 z"
     id="path123"
     style="stroke-width:0.0702585" />
  <path
     stroke="none"
     fill="#000000"
     d="m 251.78323,238.46739 v -0.4869 l 0.42155,-0.24309 17.1009,9.87342 v 0.97378 z"
     id="path124"
     style="stroke-width:0.0702585" />
  <path
     stroke="none"
     fill="#000000"
     d="m 269.30568,248.5846 v -0.97378 l 17.10091,-9.87342 0.8431,0.4862 z"
     id="path125"
     style="stroke-width:0.0702585" />
  <path
     stroke="none"
     fill="#000000"
     d="m 269.51646,244.25738 -0.42155,-0.72998 13.88025,-8.01438 0.42155,0.72998 z"
     id="path126"
     style="stroke-width:0.0702585" />
  <path
     stroke="none"
     fill="#000000"
     d="m 287.24969,238.2236 -0.8431,-0.4862 v -19.74824 l 0.8431,-0.48619 z"
     id="path127"
     style="stroke-width:0.0702585" />
  <path
     stroke="none"
     fill="#000000"
     d="m 287.24969,217.50297 -0.8431,0.48619 -17.10091,-9.87341 v -0.4869 l 0.42155,-0.24309 z"
     id="path128"
     style="stroke-width:0.0702585" />
  <path
     stroke="none"
     fill="#000000"
     d="m 283.39671,219.48356 -0.42155,0.72998 -13.88025,-8.01437 0.42155,-0.72999 z"
     id="path129"
     style="stroke-width:0.0702585" />
  <path
     stroke="none"
     fill="#000000"
     d="m 268.88413,207.38576 0.42155,0.24309 v 0.4869 l -17.1009,9.87341 -0.42155,-0.24309 v -0.48689 z"
     id="path130"
     style="stroke-width:0.0702585" />
  <path
     stroke="none"
     fill="#000000"
     d="m 216.30273,237.7374 0.42155,0.24309 v 0.4869 l -17.31168,9.99566 -0.42155,-0.73068 z"
     id="path131"
     style="stroke-width:0.0702585" />
  <path
     stroke="none"
     fill="#000000"
     d="m 269.72723,207.38576 -0.42155,0.24309 -0.42155,-0.24309 v -19.74824 l 0.8431,-0.48619 z"
     id="path132"
     style="stroke-width:0.0702585" />
  <text
     x="236.17041"
     y="182.31053"
     stroke="none"
     fill="#000000"
     font-style="normal"
     font-weight="normal"
     font-size="14.0517px"
     font-family="Arial"
     id="text132"
     style="stroke-width:0.0702585">HO</text>
  <path
     stroke="none"
     fill="#000000"
     d="m 269.72723,187.15133 -0.8431,0.48619 -10.98419,-6.34153 0.42155,-0.73069 z"
     id="path133"
     style="stroke-width:0.0702585" />
  <path
     stroke="none"
     fill="#000000"
     d="m 371.08205,191.86708 0.42155,-0.2431 0.42155,0.2431 v 19.74824 l -0.42155,0.24309 -0.42155,-0.18759 z"
     id="path134"
     style="stroke-width:0.0702585" />
  <path
     stroke="none"
     fill="#000000"
     d="m 374.72425,193.72681 h 0.8431 v 16.02876 h -0.8431 z"
     id="path135"
     style="stroke-width:0.0702585" />
  <path
     stroke="none"
     fill="#000000"
     d="m 371.5584,212.37692 -0.0548,-0.51851 0.42155,-0.24309 17.1009,9.87341 v 0.48689 l -0.47565,0.21219 z"
     id="path136"
     style="stroke-width:0.0702585" />
  <path
     stroke="none"
     fill="#000000"
     d="m 389.39913,222.24682 -0.37308,-0.2712 v -0.48689 l 17.1009,-9.87341 0.84312,0.48618 z"
     id="path137"
     style="stroke-width:0.0702585" />
  <path
     stroke="none"
     fill="#000000"
     d="m 389.23683,218.1353 -0.42155,-0.72998 13.88026,-8.01439 0.42155,0.72999 z"
     id="path138"
     style="stroke-width:0.0702585" />
  <path
     stroke="none"
     fill="#000000"
     d="m 406.97007,212.1015 -0.84312,-0.48618 v -19.74824 l 0.42155,-0.2431 0.42157,0.2431 z"
     id="path139"
     style="stroke-width:0.0702585" />
  <path
     stroke="none"
     fill="#000000"
     d="m 406.5485,191.13709 v 0.48689 l -0.42155,0.2431 -17.1009,-9.87342 v -0.97378 z"
     id="path140"
     style="stroke-width:0.0702585" />
  <path
     stroke="none"
     fill="#000000"
     d="m 403.11709,193.36148 -0.42155,0.72998 -13.88026,-8.01438 0.42155,-0.72999 z"
     id="path141"
     style="stroke-width:0.0702585" />
  <path
     stroke="none"
     fill="#000000"
     d="m 389.02605,181.01988 v 0.97378 l -17.1009,9.87342 -0.42155,-0.2431 v -0.48689 z"
     id="path142"
     style="stroke-width:0.0702585" />
  <path
     stroke="none"
     fill="#000000"
     d="m 371.08205,211.67082 0.42155,0.18759 0.0548,0.51851 -14.58073,13.13551 -1.01875,-0.21639 z"
     id="path143"
     style="stroke-width:0.0702585" />
  <path
     stroke="none"
     fill="#000000"
     d="m 355.95893,225.29604 1.01875,0.21639 7.97151,17.91872 -0.52132,0.90211 z"
     id="path144"
     style="stroke-width:0.0702585" />
  <path
     stroke="none"
     fill="#000000"
     d="m 364.42787,244.33326 0.52132,-0.90211 19.52693,-2.04383 0.69697,0.77425 z"
     id="path145"
     style="stroke-width:0.0702585" />
  <path
     stroke="none"
     fill="#000000"
     d="m 385.17309,242.16157 -0.69697,-0.77425 4.07428,-19.19951 0.47565,-0.21219 0.37308,0.2712 z"
     id="path146"
     style="stroke-width:0.0702585" />
  <path
     stroke="none"
     fill="#000000"
     d="m 406.97007,191.86708 -0.42157,-0.2431 v -0.48689 l 17.31168,-9.99567 0.42156,0.7307 z"
     id="path147"
     style="stroke-width:0.0702585" />
  <text
     x="342.27185"
     y="186.54008"
     stroke="none"
     fill="#000000"
     font-style="normal"
     font-weight="normal"
     font-size="14.0517px"
     font-family="Arial"
     id="text147"
     style="stroke-width:0.0702585">Cl</text>
  <path
     stroke="none"
     fill="#000000"
     d="m 371.5036,191.13709 v 0.48689 l -0.42155,0.2431 -13.54371,-7.81976 0.42155,-0.72999 z"
     id="path148"
     style="stroke-width:0.0702585" />
  <path
     stroke="none"
     fill="#000000"
     d="m 172.26263,121.94377 34.86435,-34.864332 0.56206,0.562075 -34.86434,34.864337 z"
     id="path149"
     style="stroke-width:0.0702585" />
  <path
     stroke="none"
     fill="#000000"
     d="m 160.85477,133.91371 c 0,0 9.98654,-16.84025 9.98654,-16.84025 0,0 0.25222,3.60285 1.75153,5.10217 1.49933,1.49931 5.10217,1.75154 5.10217,1.75154 0,0 -16.84024,9.98654 -16.84024,9.98654 0,0 0,0 0,0"
     id="path150"
     style="stroke-width:0.0702585" />
  <path
     stroke="#000000"
     stroke-width="0.0702585"
     fill="none"
     d="m 160.85477,133.91371 c 0,0 9.98654,-16.84025 9.98654,-16.84025 0,0 0.25222,3.60285 1.75153,5.10217 1.49933,1.49931 5.10217,1.75154 5.10217,1.75154 0,0 -16.84024,9.98654 -16.84024,9.98654 0,0 0,0 0,0"
     id="path151" />
  <path
     stroke="none"
     fill="#000000"
     d="m 320.27326,120.4543 -34.86434,-34.864334 0.56207,-0.562075 34.86434,34.864339 z"
     id="path152"
     style="stroke-width:0.0702585" />
  <path
     stroke="none"
     fill="#000000"
     d="m 332.24319,131.86216 c 0,0 -16.84025,-9.98653 -16.84025,-9.98653 0,0 3.60286,-0.25223 5.10218,-1.75155 1.49931,-1.49931 1.75154,-5.10217 1.75154,-5.10217 0,0 9.98653,16.84025 9.98653,16.84025 0,0 0,0 0,0"
     id="path153"
     style="stroke-width:0.0702585" />
  <path
     stroke="#000000"
     stroke-width="0.0702585"
     fill="none"
     d="m 332.24319,131.86216 c 0,0 -16.84025,-9.98653 -16.84025,-9.98653 0,0 3.60286,-0.25223 5.10218,-1.75155 1.49931,-1.49931 1.75154,-5.10217 1.75154,-5.10217 0,0 9.98653,16.84025 9.98653,16.84025 0,0 0,0 0,0"
     id="path154" />
  <path
     stroke="none"
     fill="#000000"
     d="m 247.07451,120.88357 0.39485,-33.494987 h 0.8431 l -0.39484,33.494987 z"
     id="path155"
     style="stroke-width:0.0702585" />
  <path
     stroke="none"
     fill="#000000"
     d="m 247.30074,137.41258 c 0,0 -4.59279,-19.09414 -4.59279,-19.09414 0,0 2.68107,2.43938 4.78881,2.49487 2.10706,0.0555 4.84433,-2.24264 4.84433,-2.24264 0,0 -5.04035,18.84191 -5.04035,18.84191 0,0 0,0 0,0"
     id="path156"
     style="stroke-width:0.0702585" />
  <path
     stroke="#000000"
     stroke-width="0.0702585"
     fill="none"
     d="m 247.30074,137.41258 c 0,0 -4.59279,-19.09414 -4.59279,-19.09414 0,0 2.68107,2.43938 4.78881,2.49487 2.10706,0.0555 4.84433,-2.24264 4.84433,-2.24264 0,0 -5.04035,18.84191 -5.04035,18.84191 0,0 0,0 0,0"
     id="path157" />
</svg>
